<mxfile host="app.diagrams.net" modified="2023-10-12T15:13:58.773Z" agent="Mozilla/5.0 (Macintosh; Intel Mac OS X 10_15_7) AppleWebKit/537.36 (KHTML, like Gecko) Chrome/117.0.0.0 Safari/537.36" etag="pSu1WCcorb9H-dX3CB-c" version="22.0.4" type="github" pages="3">
  <diagram name="Option 1" id="s59Q-w158SCySWScrCad">
    <mxGraphModel dx="1366" dy="729" grid="1" gridSize="10" guides="1" tooltips="1" connect="1" arrows="1" fold="1" page="1" pageScale="1" pageWidth="850" pageHeight="1100" math="0" shadow="0">
      <root>
        <mxCell id="zjvszuKnY3uwTeaeMW8j-0" />
        <mxCell id="zjvszuKnY3uwTeaeMW8j-1" parent="zjvszuKnY3uwTeaeMW8j-0" />
        <mxCell id="NEp0Q0kgfaBzgD78fkIK-0" value="BubbleRAN" style="rounded=0;whiteSpace=wrap;html=1;verticalAlign=top;fillColor=#0050ef;fontColor=#ffffff;strokeColor=#001DBC;" vertex="1" parent="zjvszuKnY3uwTeaeMW8j-1">
          <mxGeometry x="175" y="40" width="370" height="270" as="geometry" />
        </mxCell>
        <mxCell id="zjvszuKnY3uwTeaeMW8j-19" value="" style="group;verticalAlign=top;" vertex="1" connectable="0" parent="zjvszuKnY3uwTeaeMW8j-1">
          <mxGeometry x="195" y="80" width="350" height="250" as="geometry" />
        </mxCell>
        <mxCell id="zjvszuKnY3uwTeaeMW8j-20" value="FlexRIC Controller" style="rounded=0;whiteSpace=wrap;html=1;verticalAlign=top;" vertex="1" parent="zjvszuKnY3uwTeaeMW8j-19">
          <mxGeometry width="330" height="210" as="geometry" />
        </mxCell>
        <mxCell id="zjvszuKnY3uwTeaeMW8j-21" value="KPM xAPP" style="rounded=0;whiteSpace=wrap;html=1;" vertex="1" parent="zjvszuKnY3uwTeaeMW8j-19">
          <mxGeometry x="30" y="30" width="120" height="60" as="geometry" />
        </mxCell>
        <mxCell id="zjvszuKnY3uwTeaeMW8j-22" value="RC xAPP" style="rounded=0;whiteSpace=wrap;html=1;" vertex="1" parent="zjvszuKnY3uwTeaeMW8j-19">
          <mxGeometry x="180" y="30" width="120" height="60" as="geometry" />
        </mxCell>
        <mxCell id="zjvszuKnY3uwTeaeMW8j-23" value="Near-RT RIC" style="rounded=0;whiteSpace=wrap;html=1;verticalAlign=top;" vertex="1" parent="zjvszuKnY3uwTeaeMW8j-19">
          <mxGeometry x="20" y="110" width="290" height="80" as="geometry" />
        </mxCell>
        <mxCell id="zjvszuKnY3uwTeaeMW8j-24" value="E2SP-KPM v3.0" style="rounded=0;whiteSpace=wrap;html=1;fillColor=#f8cecc;strokeColor=#b85450;" vertex="1" parent="zjvszuKnY3uwTeaeMW8j-19">
          <mxGeometry x="30" y="140" width="120" height="40" as="geometry" />
        </mxCell>
        <mxCell id="zjvszuKnY3uwTeaeMW8j-25" value="E2SM-RC v1.03" style="rounded=0;whiteSpace=wrap;html=1;fillColor=#ffe6cc;strokeColor=#d79b00;" vertex="1" parent="zjvszuKnY3uwTeaeMW8j-19">
          <mxGeometry x="180" y="140" width="120" height="40" as="geometry" />
        </mxCell>
        <mxCell id="zjvszuKnY3uwTeaeMW8j-32" value="OSC O-DU [G]" style="rounded=0;whiteSpace=wrap;html=1;verticalAlign=top;fillColor=#e51400;fontColor=#ffffff;strokeColor=#B20000;" vertex="1" parent="zjvszuKnY3uwTeaeMW8j-1">
          <mxGeometry x="50" y="445" width="620" height="280" as="geometry" />
        </mxCell>
        <mxCell id="zjvszuKnY3uwTeaeMW8j-33" value="O1 Module" style="rounded=0;whiteSpace=wrap;html=1;verticalAlign=top;" vertex="1" parent="zjvszuKnY3uwTeaeMW8j-1">
          <mxGeometry x="70" y="485" width="120" height="150" as="geometry" />
        </mxCell>
        <mxCell id="zjvszuKnY3uwTeaeMW8j-34" value="Netconf Server" style="rounded=0;whiteSpace=wrap;html=1;" vertex="1" parent="zjvszuKnY3uwTeaeMW8j-1">
          <mxGeometry x="80" y="515" width="100" height="50" as="geometry" />
        </mxCell>
        <mxCell id="zjvszuKnY3uwTeaeMW8j-35" value="VES Agent" style="rounded=0;whiteSpace=wrap;html=1;" vertex="1" parent="zjvszuKnY3uwTeaeMW8j-1">
          <mxGeometry x="80" y="575" width="100" height="50" as="geometry" />
        </mxCell>
        <mxCell id="zjvszuKnY3uwTeaeMW8j-36" value="" style="rounded=0;whiteSpace=wrap;html=1;" vertex="1" parent="zjvszuKnY3uwTeaeMW8j-1">
          <mxGeometry x="220" y="485" width="420" height="210" as="geometry" />
        </mxCell>
        <mxCell id="zjvszuKnY3uwTeaeMW8j-37" style="edgeStyle=orthogonalEdgeStyle;rounded=0;orthogonalLoop=1;jettySize=auto;html=1;entryX=0.5;entryY=0;entryDx=0;entryDy=0;endArrow=none;endFill=0;" edge="1" parent="zjvszuKnY3uwTeaeMW8j-1" source="zjvszuKnY3uwTeaeMW8j-38" target="zjvszuKnY3uwTeaeMW8j-41">
          <mxGeometry relative="1" as="geometry" />
        </mxCell>
        <mxCell id="zjvszuKnY3uwTeaeMW8j-38" value="E2AP Interface Manager v2.03" style="rounded=0;whiteSpace=wrap;html=1;" vertex="1" parent="zjvszuKnY3uwTeaeMW8j-1">
          <mxGeometry x="335" y="505" width="180" height="30" as="geometry" />
        </mxCell>
        <mxCell id="zjvszuKnY3uwTeaeMW8j-39" style="edgeStyle=orthogonalEdgeStyle;rounded=0;orthogonalLoop=1;jettySize=auto;html=1;endArrow=none;endFill=0;" edge="1" parent="zjvszuKnY3uwTeaeMW8j-1" source="zjvszuKnY3uwTeaeMW8j-41" target="zjvszuKnY3uwTeaeMW8j-43">
          <mxGeometry relative="1" as="geometry" />
        </mxCell>
        <mxCell id="zjvszuKnY3uwTeaeMW8j-40" style="edgeStyle=orthogonalEdgeStyle;rounded=0;orthogonalLoop=1;jettySize=auto;html=1;endArrow=none;endFill=0;" edge="1" parent="zjvszuKnY3uwTeaeMW8j-1" source="zjvszuKnY3uwTeaeMW8j-41" target="zjvszuKnY3uwTeaeMW8j-45">
          <mxGeometry relative="1" as="geometry">
            <Array as="points">
              <mxPoint x="425" y="605" />
              <mxPoint x="540" y="605" />
            </Array>
          </mxGeometry>
        </mxCell>
        <mxCell id="zjvszuKnY3uwTeaeMW8j-41" value="E2SM Manager" style="rounded=0;whiteSpace=wrap;html=1;" vertex="1" parent="zjvszuKnY3uwTeaeMW8j-1">
          <mxGeometry x="335" y="555" width="180" height="30" as="geometry" />
        </mxCell>
        <mxCell id="zjvszuKnY3uwTeaeMW8j-42" value="" style="group" vertex="1" connectable="0" parent="zjvszuKnY3uwTeaeMW8j-1">
          <mxGeometry x="240" y="615" width="160" height="65" as="geometry" />
        </mxCell>
        <mxCell id="zjvszuKnY3uwTeaeMW8j-43" value="E2SM-KPM Module" style="rounded=0;whiteSpace=wrap;html=1;verticalAlign=top;" vertex="1" parent="zjvszuKnY3uwTeaeMW8j-42">
          <mxGeometry width="160" height="65" as="geometry" />
        </mxCell>
        <mxCell id="zjvszuKnY3uwTeaeMW8j-44" value="E2SM-KPM v2.02 / v3.00" style="rounded=0;whiteSpace=wrap;html=1;gradientColor=#DAE8FC;gradientDirection=west;fillColor=#F8CECC;" vertex="1" parent="zjvszuKnY3uwTeaeMW8j-42">
          <mxGeometry x="10" y="27.5" width="140" height="30" as="geometry" />
        </mxCell>
        <mxCell id="zjvszuKnY3uwTeaeMW8j-45" value="E2SM-KPM Module" style="rounded=0;whiteSpace=wrap;html=1;verticalAlign=top;" vertex="1" parent="zjvszuKnY3uwTeaeMW8j-1">
          <mxGeometry x="460" y="615" width="160" height="65" as="geometry" />
        </mxCell>
        <mxCell id="zjvszuKnY3uwTeaeMW8j-46" value="E2SM-RC v1.03" style="rounded=0;whiteSpace=wrap;html=1;fillColor=#ffe6cc;strokeColor=#d79b00;" vertex="1" parent="zjvszuKnY3uwTeaeMW8j-1">
          <mxGeometry x="480" y="645" width="120" height="30" as="geometry" />
        </mxCell>
        <mxCell id="zjvszuKnY3uwTeaeMW8j-47" style="edgeStyle=orthogonalEdgeStyle;rounded=0;orthogonalLoop=1;jettySize=auto;html=1;entryX=0.75;entryY=0;entryDx=0;entryDy=0;endArrow=none;endFill=0;" edge="1" parent="zjvszuKnY3uwTeaeMW8j-1" source="zjvszuKnY3uwTeaeMW8j-48" target="zjvszuKnY3uwTeaeMW8j-32">
          <mxGeometry relative="1" as="geometry" />
        </mxCell>
        <mxCell id="zjvszuKnY3uwTeaeMW8j-48" value="OSC CU-Stub [G]" style="rounded=0;whiteSpace=wrap;html=1;" vertex="1" parent="zjvszuKnY3uwTeaeMW8j-1">
          <mxGeometry x="455" y="365" width="120" height="45" as="geometry" />
        </mxCell>
        <mxCell id="zjvszuKnY3uwTeaeMW8j-49" style="edgeStyle=orthogonalEdgeStyle;rounded=0;orthogonalLoop=1;jettySize=auto;html=1;endArrow=none;endFill=0;jumpStyle=arc;" edge="1" parent="zjvszuKnY3uwTeaeMW8j-1" source="zjvszuKnY3uwTeaeMW8j-20" target="zjvszuKnY3uwTeaeMW8j-32">
          <mxGeometry relative="1" as="geometry">
            <Array as="points">
              <mxPoint x="360" y="290" />
              <mxPoint x="360" y="290" />
            </Array>
          </mxGeometry>
        </mxCell>
        <mxCell id="zjvszuKnY3uwTeaeMW8j-50" value="E2 Interface" style="text;html=1;strokeColor=none;fillColor=none;align=center;verticalAlign=middle;whiteSpace=wrap;rounded=0;" vertex="1" parent="zjvszuKnY3uwTeaeMW8j-1">
          <mxGeometry x="265" y="372.5" width="110" height="30" as="geometry" />
        </mxCell>
      </root>
    </mxGraphModel>
  </diagram>
  <diagram name="Option 2" id="tCfgE7BR6PGSNtpNqZTy">
    <mxGraphModel dx="1247" dy="665" grid="1" gridSize="10" guides="1" tooltips="1" connect="1" arrows="1" fold="1" page="1" pageScale="1" pageWidth="850" pageHeight="1100" math="0" shadow="0">
      <root>
        <mxCell id="4ySPWQuoWYqf-f-CI60a-0" />
        <mxCell id="4ySPWQuoWYqf-f-CI60a-1" parent="4ySPWQuoWYqf-f-CI60a-0" />
        <mxCell id="4ySPWQuoWYqf-f-CI60a-2" value="OAI gNB" style="rounded=0;whiteSpace=wrap;html=1;verticalAlign=top;" vertex="1" parent="4ySPWQuoWYqf-f-CI60a-1">
          <mxGeometry x="285" y="380" width="150" height="190" as="geometry" />
        </mxCell>
        <mxCell id="4ySPWQuoWYqf-f-CI60a-3" style="edgeStyle=orthogonalEdgeStyle;rounded=0;orthogonalLoop=1;jettySize=auto;html=1;endArrow=none;endFill=0;" edge="1" parent="4ySPWQuoWYqf-f-CI60a-1" source="4ySPWQuoWYqf-f-CI60a-4" target="4ySPWQuoWYqf-f-CI60a-5">
          <mxGeometry relative="1" as="geometry" />
        </mxCell>
        <mxCell id="4ySPWQuoWYqf-f-CI60a-4" value="OAI DU" style="rounded=0;whiteSpace=wrap;html=1;" vertex="1" parent="4ySPWQuoWYqf-f-CI60a-1">
          <mxGeometry x="300" y="490" width="120" height="60" as="geometry" />
        </mxCell>
        <mxCell id="4ySPWQuoWYqf-f-CI60a-5" value="OAI CU" style="rounded=0;whiteSpace=wrap;html=1;" vertex="1" parent="4ySPWQuoWYqf-f-CI60a-1">
          <mxGeometry x="300" y="410" width="120" height="60" as="geometry" />
        </mxCell>
        <mxCell id="4ySPWQuoWYqf-f-CI60a-7" style="edgeStyle=orthogonalEdgeStyle;rounded=0;orthogonalLoop=1;jettySize=auto;html=1;endArrow=none;endFill=0;jumpStyle=arc;" edge="1" parent="4ySPWQuoWYqf-f-CI60a-1" source="4ySPWQuoWYqf-f-CI60a-8" target="4ySPWQuoWYqf-f-CI60a-2">
          <mxGeometry relative="1" as="geometry">
            <Array as="points">
              <mxPoint x="360" y="300" />
              <mxPoint x="360" y="300" />
            </Array>
          </mxGeometry>
        </mxCell>
        <mxCell id="4ySPWQuoWYqf-f-CI60a-8" value="OSC Near-RT RIC [F]" style="rounded=0;whiteSpace=wrap;html=1;verticalAlign=top;fillColor=#fff2cc;strokeColor=#d6b656;" vertex="1" parent="4ySPWQuoWYqf-f-CI60a-1">
          <mxGeometry x="50" y="80" width="620" height="230" as="geometry" />
        </mxCell>
        <mxCell id="4ySPWQuoWYqf-f-CI60a-9" value="Slice xApp" style="rounded=0;whiteSpace=wrap;html=1;verticalAlign=top;" vertex="1" parent="4ySPWQuoWYqf-f-CI60a-1">
          <mxGeometry x="370" y="120" width="130" height="80" as="geometry" />
        </mxCell>
        <mxCell id="4ySPWQuoWYqf-f-CI60a-10" value="" style="group" vertex="1" connectable="0" parent="4ySPWQuoWYqf-f-CI60a-1">
          <mxGeometry x="70" y="120" width="130" height="80" as="geometry" />
        </mxCell>
        <mxCell id="4ySPWQuoWYqf-f-CI60a-11" value="KPIMON-GO xApp" style="rounded=0;whiteSpace=wrap;html=1;verticalAlign=top;" vertex="1" parent="4ySPWQuoWYqf-f-CI60a-10">
          <mxGeometry width="130" height="80" as="geometry" />
        </mxCell>
        <mxCell id="4ySPWQuoWYqf-f-CI60a-12" value="E2SP-KPM v2.02" style="rounded=0;whiteSpace=wrap;html=1;fillColor=#dae8fc;strokeColor=#6c8ebf;" vertex="1" parent="4ySPWQuoWYqf-f-CI60a-10">
          <mxGeometry x="5" y="30" width="120" height="40" as="geometry" />
        </mxCell>
        <mxCell id="4ySPWQuoWYqf-f-CI60a-13" value="" style="group" vertex="1" connectable="0" parent="4ySPWQuoWYqf-f-CI60a-1">
          <mxGeometry x="220" y="120" width="130" height="80" as="geometry" />
        </mxCell>
        <mxCell id="4ySPWQuoWYqf-f-CI60a-14" value="KPM xApp" style="rounded=0;whiteSpace=wrap;html=1;verticalAlign=top;" vertex="1" parent="4ySPWQuoWYqf-f-CI60a-13">
          <mxGeometry width="130" height="80" as="geometry" />
        </mxCell>
        <mxCell id="4ySPWQuoWYqf-f-CI60a-15" value="E2SP-KPM v2.02" style="rounded=0;whiteSpace=wrap;html=1;fillColor=#dae8fc;strokeColor=#6c8ebf;" vertex="1" parent="4ySPWQuoWYqf-f-CI60a-13">
          <mxGeometry x="5" y="30" width="120" height="40" as="geometry" />
        </mxCell>
        <mxCell id="4ySPWQuoWYqf-f-CI60a-16" value="" style="group" vertex="1" connectable="0" parent="4ySPWQuoWYqf-f-CI60a-1">
          <mxGeometry x="520" y="120" width="130" height="80" as="geometry" />
        </mxCell>
        <mxCell id="4ySPWQuoWYqf-f-CI60a-17" value="RC xApp" style="rounded=0;whiteSpace=wrap;html=1;verticalAlign=top;" vertex="1" parent="4ySPWQuoWYqf-f-CI60a-16">
          <mxGeometry width="130" height="80" as="geometry" />
        </mxCell>
        <mxCell id="4ySPWQuoWYqf-f-CI60a-18" value="E2SM-RC v1.03" style="rounded=0;whiteSpace=wrap;html=1;fillColor=#ffe6cc;strokeColor=#d79b00;" vertex="1" parent="4ySPWQuoWYqf-f-CI60a-16">
          <mxGeometry x="5" y="30" width="120" height="40" as="geometry" />
        </mxCell>
        <mxCell id="4ySPWQuoWYqf-f-CI60a-26" value="Near-RT RIC Platform" style="rounded=0;whiteSpace=wrap;html=1;verticalAlign=top;" vertex="1" parent="4ySPWQuoWYqf-f-CI60a-1">
          <mxGeometry x="70" y="230" width="580" height="60" as="geometry" />
        </mxCell>
        <mxCell id="4ySPWQuoWYqf-f-CI60a-27" value="InfluxDB" style="rounded=0;whiteSpace=wrap;html=1;" vertex="1" parent="4ySPWQuoWYqf-f-CI60a-1">
          <mxGeometry x="95" y="240" width="80" height="40" as="geometry" />
        </mxCell>
        <mxCell id="4ySPWQuoWYqf-f-CI60a-28" style="edgeStyle=orthogonalEdgeStyle;rounded=0;orthogonalLoop=1;jettySize=auto;html=1;entryX=0.112;entryY=0.01;entryDx=0;entryDy=0;entryPerimeter=0;endArrow=none;endFill=0;" edge="1" parent="4ySPWQuoWYqf-f-CI60a-1" source="4ySPWQuoWYqf-f-CI60a-11" target="4ySPWQuoWYqf-f-CI60a-26">
          <mxGeometry relative="1" as="geometry" />
        </mxCell>
        <mxCell id="4ySPWQuoWYqf-f-CI60a-29" style="edgeStyle=orthogonalEdgeStyle;rounded=0;orthogonalLoop=1;jettySize=auto;html=1;entryX=0.371;entryY=0.004;entryDx=0;entryDy=0;entryPerimeter=0;endArrow=none;endFill=0;" edge="1" parent="4ySPWQuoWYqf-f-CI60a-1" source="4ySPWQuoWYqf-f-CI60a-14" target="4ySPWQuoWYqf-f-CI60a-26">
          <mxGeometry relative="1" as="geometry">
            <Array as="points" />
          </mxGeometry>
        </mxCell>
        <mxCell id="4ySPWQuoWYqf-f-CI60a-30" style="edgeStyle=orthogonalEdgeStyle;rounded=0;orthogonalLoop=1;jettySize=auto;html=1;endArrow=none;endFill=0;" edge="1" parent="4ySPWQuoWYqf-f-CI60a-1" source="4ySPWQuoWYqf-f-CI60a-9">
          <mxGeometry relative="1" as="geometry">
            <mxPoint x="435" y="230" as="targetPoint" />
            <Array as="points">
              <mxPoint x="435" y="230" />
            </Array>
          </mxGeometry>
        </mxCell>
        <mxCell id="4ySPWQuoWYqf-f-CI60a-31" style="edgeStyle=orthogonalEdgeStyle;rounded=0;orthogonalLoop=1;jettySize=auto;html=1;entryX=0.888;entryY=-0.008;entryDx=0;entryDy=0;entryPerimeter=0;endArrow=none;endFill=0;" edge="1" parent="4ySPWQuoWYqf-f-CI60a-1" source="4ySPWQuoWYqf-f-CI60a-17" target="4ySPWQuoWYqf-f-CI60a-26">
          <mxGeometry relative="1" as="geometry" />
        </mxCell>
        <mxCell id="4ySPWQuoWYqf-f-CI60a-47" style="edgeStyle=orthogonalEdgeStyle;rounded=0;orthogonalLoop=1;jettySize=auto;html=1;entryX=0.75;entryY=0;entryDx=0;entryDy=0;endArrow=none;endFill=0;" edge="1" parent="4ySPWQuoWYqf-f-CI60a-1" source="4ySPWQuoWYqf-f-CI60a-48">
          <mxGeometry relative="1" as="geometry">
            <mxPoint x="515" y="445" as="targetPoint" />
          </mxGeometry>
        </mxCell>
        <mxCell id="4ySPWQuoWYqf-f-CI60a-50" value="E2 Interface" style="text;html=1;strokeColor=none;fillColor=none;align=center;verticalAlign=middle;whiteSpace=wrap;rounded=0;" vertex="1" parent="4ySPWQuoWYqf-f-CI60a-1">
          <mxGeometry x="340" y="335" width="110" height="30" as="geometry" />
        </mxCell>
      </root>
    </mxGraphModel>
  </diagram>
  <diagram name="Final Goal" id="gCN4o6Veg4n1kq5N-5kR">
    <mxGraphModel dx="1593" dy="850" grid="1" gridSize="10" guides="1" tooltips="1" connect="1" arrows="1" fold="1" page="1" pageScale="1" pageWidth="850" pageHeight="1100" math="0" shadow="0">
      <root>
        <mxCell id="0" />
        <mxCell id="1" parent="0" />
        <mxCell id="XRGXcyckAtTecOZa3kos-3" value="OAI gNB" style="rounded=0;whiteSpace=wrap;html=1;verticalAlign=top;" parent="1" vertex="1">
          <mxGeometry x="830" y="440" width="150" height="210" as="geometry" />
        </mxCell>
        <mxCell id="XRGXcyckAtTecOZa3kos-4" style="edgeStyle=orthogonalEdgeStyle;rounded=0;orthogonalLoop=1;jettySize=auto;html=1;endArrow=none;endFill=0;" parent="1" source="XRGXcyckAtTecOZa3kos-1" target="XRGXcyckAtTecOZa3kos-2" edge="1">
          <mxGeometry relative="1" as="geometry" />
        </mxCell>
        <mxCell id="XRGXcyckAtTecOZa3kos-1" value="OAI DU" style="rounded=0;whiteSpace=wrap;html=1;" parent="1" vertex="1">
          <mxGeometry x="845" y="570" width="120" height="60" as="geometry" />
        </mxCell>
        <mxCell id="XRGXcyckAtTecOZa3kos-2" value="OAI CU" style="rounded=0;whiteSpace=wrap;html=1;" parent="1" vertex="1">
          <mxGeometry x="845" y="480" width="120" height="60" as="geometry" />
        </mxCell>
        <mxCell id="1UXzM20nikgGf2zpWay3-17" style="edgeStyle=orthogonalEdgeStyle;rounded=0;orthogonalLoop=1;jettySize=auto;html=1;endArrow=none;endFill=0;" edge="1" parent="1" source="3vOwqqGTulnoMyiWmg79-8" target="3vOwqqGTulnoMyiWmg79-29">
          <mxGeometry relative="1" as="geometry" />
        </mxCell>
        <mxCell id="1UXzM20nikgGf2zpWay3-21" style="edgeStyle=orthogonalEdgeStyle;rounded=0;orthogonalLoop=1;jettySize=auto;html=1;endArrow=none;endFill=0;jumpStyle=arc;" edge="1" parent="1" source="3vOwqqGTulnoMyiWmg79-8" target="XRGXcyckAtTecOZa3kos-3">
          <mxGeometry relative="1" as="geometry">
            <Array as="points">
              <mxPoint x="690" y="195" />
              <mxPoint x="690" y="360" />
              <mxPoint x="905" y="360" />
            </Array>
          </mxGeometry>
        </mxCell>
        <mxCell id="3vOwqqGTulnoMyiWmg79-8" value="OSC Near-RT RIC [F]" style="rounded=0;whiteSpace=wrap;html=1;verticalAlign=top;fillColor=#fff2cc;strokeColor=#d6b656;" parent="1" vertex="1">
          <mxGeometry x="50" y="80" width="620" height="230" as="geometry" />
        </mxCell>
        <mxCell id="3vOwqqGTulnoMyiWmg79-13" value="Slice xApp" style="rounded=0;whiteSpace=wrap;html=1;verticalAlign=top;" parent="1" vertex="1">
          <mxGeometry x="370" y="120" width="130" height="80" as="geometry" />
        </mxCell>
        <mxCell id="3vOwqqGTulnoMyiWmg79-16" value="" style="group" parent="1" vertex="1" connectable="0">
          <mxGeometry x="70" y="120" width="130" height="80" as="geometry" />
        </mxCell>
        <mxCell id="3vOwqqGTulnoMyiWmg79-9" value="KPIMON-GO xApp" style="rounded=0;whiteSpace=wrap;html=1;verticalAlign=top;" parent="3vOwqqGTulnoMyiWmg79-16" vertex="1">
          <mxGeometry width="130" height="80" as="geometry" />
        </mxCell>
        <mxCell id="3vOwqqGTulnoMyiWmg79-10" value="E2SP-KPM v2.02" style="rounded=0;whiteSpace=wrap;html=1;fillColor=#dae8fc;strokeColor=#6c8ebf;" parent="3vOwqqGTulnoMyiWmg79-16" vertex="1">
          <mxGeometry x="5" y="30" width="120" height="40" as="geometry" />
        </mxCell>
        <mxCell id="3vOwqqGTulnoMyiWmg79-17" value="" style="group" parent="1" vertex="1" connectable="0">
          <mxGeometry x="220" y="120" width="130" height="80" as="geometry" />
        </mxCell>
        <mxCell id="3vOwqqGTulnoMyiWmg79-11" value="KPM xApp" style="rounded=0;whiteSpace=wrap;html=1;verticalAlign=top;" parent="3vOwqqGTulnoMyiWmg79-17" vertex="1">
          <mxGeometry width="130" height="80" as="geometry" />
        </mxCell>
        <mxCell id="3vOwqqGTulnoMyiWmg79-12" value="E2SP-KPM v2.02" style="rounded=0;whiteSpace=wrap;html=1;fillColor=#dae8fc;strokeColor=#6c8ebf;" parent="3vOwqqGTulnoMyiWmg79-17" vertex="1">
          <mxGeometry x="5" y="30" width="120" height="40" as="geometry" />
        </mxCell>
        <mxCell id="3vOwqqGTulnoMyiWmg79-18" value="" style="group" parent="1" vertex="1" connectable="0">
          <mxGeometry x="520" y="120" width="130" height="80" as="geometry" />
        </mxCell>
        <mxCell id="3vOwqqGTulnoMyiWmg79-14" value="RC xApp" style="rounded=0;whiteSpace=wrap;html=1;verticalAlign=top;" parent="3vOwqqGTulnoMyiWmg79-18" vertex="1">
          <mxGeometry width="130" height="80" as="geometry" />
        </mxCell>
        <mxCell id="3vOwqqGTulnoMyiWmg79-15" value="E2SM-RC v1.03" style="rounded=0;whiteSpace=wrap;html=1;fillColor=#ffe6cc;strokeColor=#d79b00;" parent="3vOwqqGTulnoMyiWmg79-18" vertex="1">
          <mxGeometry x="5" y="30" width="120" height="40" as="geometry" />
        </mxCell>
        <mxCell id="3vOwqqGTulnoMyiWmg79-20" value="Near-RT RIC Platform" style="rounded=0;whiteSpace=wrap;html=1;verticalAlign=top;" parent="1" vertex="1">
          <mxGeometry x="70" y="230" width="580" height="60" as="geometry" />
        </mxCell>
        <mxCell id="3vOwqqGTulnoMyiWmg79-21" value="InfluxDB" style="rounded=0;whiteSpace=wrap;html=1;" parent="1" vertex="1">
          <mxGeometry x="95" y="240" width="80" height="40" as="geometry" />
        </mxCell>
        <mxCell id="3vOwqqGTulnoMyiWmg79-22" style="edgeStyle=orthogonalEdgeStyle;rounded=0;orthogonalLoop=1;jettySize=auto;html=1;entryX=0.112;entryY=0.01;entryDx=0;entryDy=0;entryPerimeter=0;endArrow=none;endFill=0;" parent="1" source="3vOwqqGTulnoMyiWmg79-9" target="3vOwqqGTulnoMyiWmg79-20" edge="1">
          <mxGeometry relative="1" as="geometry" />
        </mxCell>
        <mxCell id="3vOwqqGTulnoMyiWmg79-25" style="edgeStyle=orthogonalEdgeStyle;rounded=0;orthogonalLoop=1;jettySize=auto;html=1;entryX=0.371;entryY=0.004;entryDx=0;entryDy=0;entryPerimeter=0;endArrow=none;endFill=0;" parent="1" source="3vOwqqGTulnoMyiWmg79-11" target="3vOwqqGTulnoMyiWmg79-20" edge="1">
          <mxGeometry relative="1" as="geometry">
            <Array as="points" />
          </mxGeometry>
        </mxCell>
        <mxCell id="3vOwqqGTulnoMyiWmg79-26" style="edgeStyle=orthogonalEdgeStyle;rounded=0;orthogonalLoop=1;jettySize=auto;html=1;endArrow=none;endFill=0;" parent="1" source="3vOwqqGTulnoMyiWmg79-13" edge="1">
          <mxGeometry relative="1" as="geometry">
            <mxPoint x="435" y="230" as="targetPoint" />
            <Array as="points">
              <mxPoint x="435" y="230" />
            </Array>
          </mxGeometry>
        </mxCell>
        <mxCell id="3vOwqqGTulnoMyiWmg79-28" style="edgeStyle=orthogonalEdgeStyle;rounded=0;orthogonalLoop=1;jettySize=auto;html=1;entryX=0.888;entryY=-0.008;entryDx=0;entryDy=0;entryPerimeter=0;endArrow=none;endFill=0;" parent="1" source="3vOwqqGTulnoMyiWmg79-14" target="3vOwqqGTulnoMyiWmg79-20" edge="1">
          <mxGeometry relative="1" as="geometry" />
        </mxCell>
        <mxCell id="3vOwqqGTulnoMyiWmg79-29" value="OSC O-DU [G]" style="rounded=0;whiteSpace=wrap;html=1;verticalAlign=top;fillColor=#e51400;fontColor=#ffffff;strokeColor=#B20000;" parent="1" vertex="1">
          <mxGeometry x="50" y="430" width="620" height="280" as="geometry" />
        </mxCell>
        <mxCell id="3vOwqqGTulnoMyiWmg79-30" value="O1 Module" style="rounded=0;whiteSpace=wrap;html=1;verticalAlign=top;" parent="1" vertex="1">
          <mxGeometry x="70" y="470" width="120" height="150" as="geometry" />
        </mxCell>
        <mxCell id="3vOwqqGTulnoMyiWmg79-31" value="Netconf Server" style="rounded=0;whiteSpace=wrap;html=1;" parent="1" vertex="1">
          <mxGeometry x="80" y="500" width="100" height="50" as="geometry" />
        </mxCell>
        <mxCell id="3vOwqqGTulnoMyiWmg79-32" value="VES Agent" style="rounded=0;whiteSpace=wrap;html=1;" parent="1" vertex="1">
          <mxGeometry x="80" y="560" width="100" height="50" as="geometry" />
        </mxCell>
        <mxCell id="3vOwqqGTulnoMyiWmg79-33" value="" style="rounded=0;whiteSpace=wrap;html=1;" parent="1" vertex="1">
          <mxGeometry x="220" y="470" width="420" height="210" as="geometry" />
        </mxCell>
        <mxCell id="1UXzM20nikgGf2zpWay3-13" style="edgeStyle=orthogonalEdgeStyle;rounded=0;orthogonalLoop=1;jettySize=auto;html=1;entryX=0.5;entryY=0;entryDx=0;entryDy=0;endArrow=none;endFill=0;" edge="1" parent="1" source="3vOwqqGTulnoMyiWmg79-34" target="1UXzM20nikgGf2zpWay3-1">
          <mxGeometry relative="1" as="geometry" />
        </mxCell>
        <mxCell id="3vOwqqGTulnoMyiWmg79-34" value="E2AP Interface Manager v2.03" style="rounded=0;whiteSpace=wrap;html=1;" parent="1" vertex="1">
          <mxGeometry x="335" y="490" width="180" height="30" as="geometry" />
        </mxCell>
        <mxCell id="1UXzM20nikgGf2zpWay3-14" style="edgeStyle=orthogonalEdgeStyle;rounded=0;orthogonalLoop=1;jettySize=auto;html=1;endArrow=none;endFill=0;" edge="1" parent="1" source="1UXzM20nikgGf2zpWay3-1" target="1UXzM20nikgGf2zpWay3-2">
          <mxGeometry relative="1" as="geometry" />
        </mxCell>
        <mxCell id="1UXzM20nikgGf2zpWay3-15" style="edgeStyle=orthogonalEdgeStyle;rounded=0;orthogonalLoop=1;jettySize=auto;html=1;endArrow=none;endFill=0;" edge="1" parent="1" source="1UXzM20nikgGf2zpWay3-1" target="1UXzM20nikgGf2zpWay3-10">
          <mxGeometry relative="1" as="geometry">
            <Array as="points">
              <mxPoint x="425" y="590" />
              <mxPoint x="540" y="590" />
            </Array>
          </mxGeometry>
        </mxCell>
        <mxCell id="1UXzM20nikgGf2zpWay3-1" value="E2SM Manager" style="rounded=0;whiteSpace=wrap;html=1;" vertex="1" parent="1">
          <mxGeometry x="335" y="540" width="180" height="30" as="geometry" />
        </mxCell>
        <mxCell id="1UXzM20nikgGf2zpWay3-6" value="" style="group" vertex="1" connectable="0" parent="1">
          <mxGeometry x="240" y="600" width="160" height="65" as="geometry" />
        </mxCell>
        <mxCell id="1UXzM20nikgGf2zpWay3-2" value="E2SM-KPM Module" style="rounded=0;whiteSpace=wrap;html=1;verticalAlign=top;" vertex="1" parent="1UXzM20nikgGf2zpWay3-6">
          <mxGeometry width="160" height="65" as="geometry" />
        </mxCell>
        <mxCell id="1UXzM20nikgGf2zpWay3-3" value="E2SM-KPM v2.02 / v3.00" style="rounded=0;whiteSpace=wrap;html=1;gradientColor=#DAE8FC;gradientDirection=west;fillColor=#F8CECC;" vertex="1" parent="1UXzM20nikgGf2zpWay3-6">
          <mxGeometry x="10" y="27.5" width="140" height="30" as="geometry" />
        </mxCell>
        <mxCell id="1UXzM20nikgGf2zpWay3-10" value="E2SM-KPM Module" style="rounded=0;whiteSpace=wrap;html=1;verticalAlign=top;" vertex="1" parent="1">
          <mxGeometry x="460" y="600" width="160" height="65" as="geometry" />
        </mxCell>
        <mxCell id="1UXzM20nikgGf2zpWay3-12" value="E2SM-RC v1.03" style="rounded=0;whiteSpace=wrap;html=1;fillColor=#ffe6cc;strokeColor=#d79b00;" vertex="1" parent="1">
          <mxGeometry x="480" y="630" width="120" height="30" as="geometry" />
        </mxCell>
        <mxCell id="1UXzM20nikgGf2zpWay3-19" style="edgeStyle=orthogonalEdgeStyle;rounded=0;orthogonalLoop=1;jettySize=auto;html=1;entryX=0.75;entryY=0;entryDx=0;entryDy=0;endArrow=none;endFill=0;" edge="1" parent="1" source="1UXzM20nikgGf2zpWay3-16" target="3vOwqqGTulnoMyiWmg79-29">
          <mxGeometry relative="1" as="geometry" />
        </mxCell>
        <mxCell id="1UXzM20nikgGf2zpWay3-16" value="OSC CU-Stub [G]" style="rounded=0;whiteSpace=wrap;html=1;" vertex="1" parent="1">
          <mxGeometry x="455" y="360" width="120" height="45" as="geometry" />
        </mxCell>
        <mxCell id="1UXzM20nikgGf2zpWay3-20" style="edgeStyle=orthogonalEdgeStyle;rounded=0;orthogonalLoop=1;jettySize=auto;html=1;endArrow=none;endFill=0;jumpStyle=arc;exitX=0.5;exitY=1;exitDx=0;exitDy=0;" edge="1" parent="1" source="R0rqUHq_UJQzVdcRtYXt-1" target="3vOwqqGTulnoMyiWmg79-29">
          <mxGeometry relative="1" as="geometry">
            <mxPoint x="925.037037037037" y="310" as="sourcePoint" />
            <Array as="points">
              <mxPoint x="895" y="340" />
              <mxPoint x="360" y="340" />
            </Array>
          </mxGeometry>
        </mxCell>
        <mxCell id="1UXzM20nikgGf2zpWay3-22" value="E2 Interface" style="text;html=1;strokeColor=none;fillColor=none;align=center;verticalAlign=middle;whiteSpace=wrap;rounded=0;" vertex="1" parent="1">
          <mxGeometry x="340" y="335" width="110" height="30" as="geometry" />
        </mxCell>
        <mxCell id="R0rqUHq_UJQzVdcRtYXt-1" value="BubbleRAN" style="rounded=0;whiteSpace=wrap;html=1;verticalAlign=top;fillColor=#0050ef;fontColor=#ffffff;strokeColor=#001DBC;" vertex="1" parent="1">
          <mxGeometry x="710" y="40" width="370" height="270" as="geometry" />
        </mxCell>
        <mxCell id="R0rqUHq_UJQzVdcRtYXt-2" value="" style="group;verticalAlign=top;" vertex="1" connectable="0" parent="1">
          <mxGeometry x="770" y="80" width="350" height="250" as="geometry" />
        </mxCell>
        <mxCell id="R0rqUHq_UJQzVdcRtYXt-3" value="FlexRIC Controller" style="rounded=0;whiteSpace=wrap;html=1;verticalAlign=top;" vertex="1" parent="R0rqUHq_UJQzVdcRtYXt-2">
          <mxGeometry x="-40" width="330" height="210" as="geometry" />
        </mxCell>
        <mxCell id="R0rqUHq_UJQzVdcRtYXt-4" value="KPM xAPP" style="rounded=0;whiteSpace=wrap;html=1;" vertex="1" parent="R0rqUHq_UJQzVdcRtYXt-2">
          <mxGeometry x="-10" y="30" width="120" height="60" as="geometry" />
        </mxCell>
        <mxCell id="R0rqUHq_UJQzVdcRtYXt-5" value="RC xAPP" style="rounded=0;whiteSpace=wrap;html=1;" vertex="1" parent="R0rqUHq_UJQzVdcRtYXt-2">
          <mxGeometry x="140" y="30" width="120" height="60" as="geometry" />
        </mxCell>
        <mxCell id="R0rqUHq_UJQzVdcRtYXt-6" value="Near-RT RIC" style="rounded=0;whiteSpace=wrap;html=1;verticalAlign=top;" vertex="1" parent="R0rqUHq_UJQzVdcRtYXt-2">
          <mxGeometry x="-20" y="110" width="290" height="80" as="geometry" />
        </mxCell>
        <mxCell id="R0rqUHq_UJQzVdcRtYXt-7" value="E2SP-KPM v3.0" style="rounded=0;whiteSpace=wrap;html=1;fillColor=#f8cecc;strokeColor=#b85450;" vertex="1" parent="R0rqUHq_UJQzVdcRtYXt-2">
          <mxGeometry x="-10" y="140" width="120" height="40" as="geometry" />
        </mxCell>
        <mxCell id="R0rqUHq_UJQzVdcRtYXt-8" value="E2SM-RC v1.03" style="rounded=0;whiteSpace=wrap;html=1;fillColor=#ffe6cc;strokeColor=#d79b00;" vertex="1" parent="R0rqUHq_UJQzVdcRtYXt-2">
          <mxGeometry x="140" y="140" width="120" height="40" as="geometry" />
        </mxCell>
      </root>
    </mxGraphModel>
  </diagram>
</mxfile>
